<?xml version="1.0" standalone="no"?>
<!DOCTYPE svg PUBLIC "-//W3C//DTD SVG 20010904//EN"
 "http://www.w3.org/TR/2001/REC-SVG-20010904/DTD/svg10.dtd">
<svg version="1.0" xmlns="http://www.w3.org/2000/svg"
 width="1024.000000pt" height="1024.000000pt" viewBox="0 0 1024.000000 1024.000000"
 preserveAspectRatio="xMidYMid meet">

<g transform="translate(0.000000,1024.000000) scale(0.100000,-0.100000)"
fill="#000000" stroke="none">
<path d="M4793 9354 c-508 -61 -890 -228 -1192 -518 -204 -198 -335 -382 -491
-691 -185 -365 -294 -693 -490 -1470 -134 -530 -182 -702 -270 -959 -103 -301
-223 -565 -358 -787 -98 -163 -142 -248 -142 -279 0 -55 122 -175 297 -293
115 -76 414 -223 573 -280 367 -132 686 -194 1047 -204 l213 -6 -28 -49 c-51
-91 -118 -173 -173 -211 -76 -52 -314 -153 -714 -302 -187 -70 -388 -146 -446
-170 -577 -236 -956 -591 -1152 -1080 -120 -299 -215 -714 -247 -1078 -14
-149 -9 -165 62 -191 38 -15 99 -16 508 -14 l465 3 11 25 c8 16 18 174 29 420
11 255 21 404 29 420 13 28 58 39 82 19 18 -15 18 -101 -1 -464 -19 -361 -19
-390 1 -409 14 -14 273 -16 2698 -16 2246 0 2685 2 2701 14 18 13 18 24 4 357
-8 189 -14 382 -14 429 0 78 2 85 23 96 28 14 59 8 71 -15 5 -9 16 -173 25
-366 20 -432 24 -482 43 -500 21 -21 906 -22 956 -1 77 32 81 64 46 338 -61
483 -202 954 -361 1207 -133 212 -355 432 -588 584 -179 116 -372 202 -855
382 -330 122 -538 207 -659 267 -119 60 -184 121 -239 225 l-37 70 163 7 c282
12 486 40 734 101 450 111 848 296 1096 510 79 67 137 143 137 177 0 25 -48
117 -138 267 -229 382 -395 835 -617 1691 -265 1022 -437 1485 -694 1871 -237
356 -482 542 -826 629 -61 16 -144 32 -185 36 -67 6 -79 11 -117 44 -88 77
-244 140 -413 165 -119 19 -414 18 -567 -1z m769 -917 c74 -155 209 -362 357
-547 153 -191 475 -504 689 -669 l82 -64 0 -256 c0 -283 2 -293 60 -306 34 -7
77 14 87 43 13 36 56 83 95 103 116 59 221 -11 253 -170 27 -129 -4 -418 -61
-570 -69 -184 -212 -340 -313 -341 -14 0 -44 9 -67 20 -32 16 -47 18 -68 10
-31 -11 -37 -24 -71 -153 -74 -278 -183 -486 -377 -712 -143 -167 -287 -288
-485 -407 -337 -203 -701 -245 -1046 -122 -321 116 -640 379 -854 706 -86 131
-124 216 -202 454 -37 111 -73 209 -80 218 -17 20 -71 21 -97 1 -27 -21 -88
-18 -135 5 -108 56 -227 238 -274 420 -40 154 -50 412 -21 513 32 109 116 165
208 138 43 -13 118 -75 118 -98 0 -23 47 -63 75 -63 14 0 37 11 50 25 25 24
25 25 25 224 l0 199 83 38 c951 441 1657 952 1899 1376 18 32 34 58 34 58 1 0
17 -33 36 -73z m477 -4597 c24 -114 66 -201 127 -269 43 -48 182 -147 281
-201 51 -28 52 -26 -56 -142 -190 -202 -457 -358 -743 -432 -568 -147 -1153
-66 -1588 222 -78 52 -340 298 -340 320 0 5 23 21 51 37 134 72 260 175 319
261 60 86 103 292 116 561 4 73 8 133 9 133 1 0 39 -25 86 -56 159 -105 350
-185 542 -226 134 -28 360 -30 490 -5 194 39 402 127 582 246 l90 59 7 -207
c5 -148 12 -233 27 -301z"/>
<path d="M5673 7146 c-149 -34 -210 -106 -153 -179 29 -37 60 -40 152 -16 151
39 341 14 494 -65 81 -41 111 -44 148 -15 20 16 26 29 26 60 0 22 -5 49 -10
59 -16 31 -137 96 -240 131 -84 28 -110 32 -225 35 -87 3 -150 -1 -192 -10z"/>
<path d="M4211 7139 c-133 -26 -295 -104 -335 -160 -24 -35 -20 -85 9 -114 33
-34 60 -31 150 14 138 71 314 96 465 66 150 -30 175 -31 205 -1 73 73 -5 154
-184 192 -72 15 -240 17 -310 3z"/>
<path d="M5820 6629 c-117 -47 -147 -253 -52 -360 29 -31 46 -42 78 -46 180
-23 229 330 57 403 -37 16 -49 16 -83 3z"/>
<path d="M4294 6611 c-70 -43 -100 -182 -61 -283 40 -102 137 -140 208 -81 47
40 69 95 69 178 0 83 -22 138 -69 178 -40 33 -101 36 -147 8z"/>
<path d="M4993 6401 c-16 -15 -22 -37 -27 -99 -9 -98 -22 -146 -76 -287 -36
-93 -43 -122 -44 -185 -1 -58 4 -84 20 -115 48 -92 189 -158 337 -159 76 -1
79 0 108 32 36 40 38 80 4 120 -22 26 -32 30 -100 35 -102 7 -169 39 -173 82
-1 17 15 81 37 142 71 197 77 368 15 429 -28 29 -73 31 -101 5z"/>
<path d="M4473 5398 c-40 -10 -63 -42 -63 -85 0 -85 229 -249 421 -303 97 -26
266 -43 364 -35 194 16 368 83 503 196 113 93 137 149 88 206 -19 21 -33 28
-63 28 -32 0 -49 -9 -94 -47 -105 -89 -216 -147 -340 -179 -78 -20 -287 -17
-369 5 -94 25 -235 97 -308 156 -75 61 -97 70 -139 58z"/>
</g>
</svg>
