<?xml version="1.0" standalone="no"?>
<!DOCTYPE svg PUBLIC "-//W3C//DTD SVG 20010904//EN"
 "http://www.w3.org/TR/2001/REC-SVG-20010904/DTD/svg10.dtd">
<svg version="1.0" xmlns="http://www.w3.org/2000/svg"
 width="1024.000000pt" height="1536.000000pt" viewBox="0 0 1024.000000 1536.000000"
 preserveAspectRatio="xMidYMid meet">

<g transform="translate(0.000000,1536.000000) scale(0.100000,-0.100000)"
fill="#000000" stroke="none">
<path d="M5125 14484 c-590 -61 -996 -245 -1362 -616 -159 -161 -261 -295
-382 -501 -178 -304 -273 -565 -446 -1221 -46 -176 -112 -418 -145 -536 -198
-700 -318 -1282 -360 -1740 -13 -147 -13 -478 0 -595 21 -181 69 -340 138
-458 76 -131 242 -300 364 -369 31 -18 58 -36 58 -39 0 -4 -19 -9 -42 -13 -73
-11 -404 -105 -592 -167 -201 -66 -372 -144 -473 -215 -176 -124 -351 -341
-475 -588 -119 -237 -316 -767 -531 -1426 -221 -675 -239 -737 -228 -758 5
-10 62 -49 125 -87 64 -38 116 -70 116 -72 0 -1 -23 -123 -51 -270 -127 -676
-193 -1129 -205 -1409 -17 -383 78 -680 284 -890 151 -154 311 -221 552 -231
230 -9 402 32 635 148 125 63 308 179 385 244 34 28 46 34 48 22 2 -8 -28
-167 -67 -353 -118 -574 -171 -845 -171 -880 0 -57 30 -75 212 -128 559 -164
1181 -282 1803 -341 232 -22 560 -35 872 -35 1054 0 1855 109 2718 372 244 74
248 78 216 221 -12 51 -48 232 -82 402 -33 171 -83 415 -110 544 -51 246 -54
261 -41 261 4 0 41 -30 82 -66 144 -127 395 -277 555 -332 168 -57 322 -79
446 -62 399 54 702 355 774 769 28 159 16 413 -34 696 -17 98 -122 660 -216
1159 -39 208 -49 178 89 253 104 56 124 79 108 126 -63 192 -425 1246 -477
1387 -253 697 -382 946 -610 1175 -168 170 -341 268 -661 375 -98 32 -254 79
-347 103 l-167 43 107 71 c235 154 383 332 451 543 67 203 93 408 93 726 0
471 -59 946 -211 1704 -38 190 -85 442 -105 560 -94 563 -221 977 -415 1359
-204 402 -488 719 -768 860 -96 48 -236 92 -315 98 -52 4 -91 15 -142 39 -96
45 -233 89 -362 115 -91 18 -147 22 -353 24 -135 2 -263 1 -285 -1z m992
-1058 c137 -140 208 -253 407 -644 205 -403 299 -557 536 -877 28 -38 31 -48
36 -155 4 -63 11 -121 17 -127 7 -10 16 -7 39 13 84 70 172 85 266 44 71 -31
117 -86 144 -174 18 -59 20 -85 15 -180 -11 -237 -98 -452 -245 -608 -80 -84
-137 -125 -216 -154 l-59 -21 -32 -99 c-189 -583 -475 -1010 -850 -1264 -154
-104 -343 -181 -530 -216 -136 -26 -396 -26 -512 -1 -459 99 -898 432 -1172
888 -93 157 -175 343 -284 649 l-13 34 -69 1 c-54 0 -83 6 -125 26 -171 81
-322 284 -397 534 -23 79 -27 108 -27 240 -1 141 1 153 25 205 48 103 135 164
236 164 46 0 60 -5 121 -47 38 -26 74 -47 79 -47 21 0 34 30 49 116 9 49 22
104 31 122 41 87 326 277 908 606 561 318 1101 754 1357 1098 l50 67 59 -45
c32 -26 102 -92 156 -148z m-1600 -4387 c184 -120 422 -214 638 -251 161 -27
448 -22 565 10 136 38 334 126 447 198 l52 33 -1 -177 c-1 -155 2 -185 20
-243 39 -120 114 -191 216 -205 55 -8 55 -5 5 -134 -154 -401 -554 -639 -1073
-640 -335 0 -662 97 -936 279 -95 63 -250 207 -317 294 -44 56 -153 234 -153
248 0 4 19 10 43 14 147 24 241 124 283 302 13 57 32 284 34 398 l0 29 50 -52
c27 -29 85 -75 127 -103z m-1350 -1938 c26 -16 33 -29 41 -73 8 -41 21 -655
26 -1257 l1 -64 -110 -22 c-60 -13 -111 -22 -112 -21 -9 8 -23 575 -23 919 0
470 2 486 51 521 31 22 87 20 126 -3z m4491 -27 c13 -8 28 -27 35 -42 16 -37
15 -605 -2 -862 -13 -208 -40 -532 -44 -536 -1 -1 -33 6 -72 16 -38 11 -85 19
-102 19 l-33 1 0 63 c1 34 5 122 10 196 5 73 14 319 20 545 13 528 15 549 46
586 36 42 90 47 142 14z m-4844 -137 c21 -28 21 -41 28 -555 3 -290 9 -582 14
-649 5 -95 4 -123 -5 -123 -7 0 -53 -19 -102 -42 -49 -22 -91 -39 -93 -37 -26
28 -44 721 -28 1099 10 250 19 292 63 324 37 26 97 17 123 -17z m715 -32 c17
-15 39 -51 52 -83 21 -55 22 -72 24 -467 1 -314 6 -440 18 -540 36 -279 88
-505 147 -632 l38 -81 -22 -20 c-11 -11 -64 -43 -116 -72 -52 -29 -108 -62
-125 -73 -63 -44 -170 -155 -215 -223 -52 -79 -99 -210 -107 -294 -6 -64 10
-87 71 -97 58 -9 79 12 100 102 47 198 175 350 386 455 127 63 162 98 218 212
28 57 69 147 92 200 56 130 104 208 170 275 103 105 203 129 264 62 23 -26 27
-38 23 -68 -2 -20 -56 -172 -120 -336 -63 -165 -118 -311 -122 -325 -22 -74
-144 -372 -199 -485 -173 -355 -393 -569 -671 -654 -67 -21 -73 -25 -155 -117
-47 -53 -182 -191 -300 -307 -669 -659 -1083 -903 -1500 -884 -269 12 -452
131 -571 372 -58 118 -84 215 -100 368 -22 214 1 434 111 1067 103 596 123
715 125 717 2 3 71 -18 550 -167 209 -65 427 -132 485 -150 58 -18 109 -35
113 -40 5 -4 23 -70 42 -146 19 -77 40 -158 48 -180 l15 -42 -326 -137 c-772
-325 -868 -367 -884 -387 -28 -32 -23 -85 11 -119 16 -16 37 -29 46 -29 9 0
50 16 91 35 112 52 1065 453 1094 459 23 6 28 0 67 -83 53 -112 117 -181 166
-181 50 0 87 33 87 77 0 28 -10 46 -47 88 -52 56 -72 100 -139 299 -152 450
-238 1108 -214 1644 12 253 37 538 51 564 23 42 98 52 136 16 22 -21 23 -26
23 -202 0 -232 15 -513 40 -741 19 -169 21 -181 45 -202 45 -40 68 -39 132 5
133 90 179 107 503 182 117 27 216 54 220 60 4 6 2 37 -4 68 -6 35 -10 260
-11 592 0 495 1 539 18 582 18 47 57 88 83 88 7 0 26 -11 43 -25z m4486 1 c31
-31 43 -79 55 -222 20 -244 9 -535 -37 -949 -14 -132 -27 -241 -28 -243 -5 -6
-215 100 -210 107 18 30 62 750 68 1119 l2 154 33 29 c41 36 84 38 117 5z
m-732 -34 c42 -38 49 -68 48 -222 -1 -205 -29 -876 -42 -984 -5 -49 -6 -93 -1
-98 4 -4 64 -22 133 -39 292 -71 397 -108 529 -188 46 -28 92 -51 102 -51 32
0 77 29 83 53 29 131 75 583 81 812 8 288 21 335 90 335 48 0 82 -34 94 -95 5
-27 15 -171 22 -318 11 -237 10 -293 -5 -485 -31 -377 -72 -646 -142 -930 -67
-272 -177 -561 -266 -698 -53 -82 -52 -131 2 -159 67 -35 104 -6 179 139 30
58 58 106 63 106 11 0 80 -28 536 -219 211 -89 395 -161 408 -161 38 0 73 42
73 88 0 21 -6 46 -12 55 -18 24 -112 65 -553 242 -214 87 -391 158 -393 160
-1 1 20 69 47 151 27 82 57 184 67 227 12 51 25 82 36 88 33 18 818 309 833
309 8 0 17 -10 20 -22 4 -19 183 -975 252 -1348 25 -136 25 -478 0 -570 -44
-166 -102 -267 -216 -381 -149 -149 -301 -206 -520 -196 -137 6 -226 29 -356
92 -332 159 -650 464 -1227 1175 -28 36 -48 49 -93 63 -130 40 -295 169 -405
316 -120 160 -201 334 -323 696 -47 138 -126 360 -176 495 -50 134 -91 258
-91 276 0 48 47 84 109 84 118 0 237 -110 331 -305 32 -66 77 -168 101 -228
61 -150 92 -188 219 -266 206 -127 321 -272 370 -465 24 -97 48 -126 102 -126
48 0 78 28 78 73 0 101 -82 310 -165 417 -63 82 -125 133 -268 222 -169 106
-165 100 -127 181 66 139 130 472 150 777 5 80 12 278 16 440 7 346 16 400 84
471 35 37 43 41 72 35 17 -3 40 -14 51 -24z"/>
<path d="M5769 12251 c-37 -37 -37 -67 0 -118 58 -81 171 -160 301 -212 78
-30 449 -122 502 -123 62 -2 91 80 45 126 -17 17 -52 30 -123 46 -346 77 -474
125 -558 208 -25 25 -46 49 -46 54 0 18 -41 48 -66 48 -15 0 -38 -12 -55 -29z"/>
<path d="M4845 12206 c-89 -93 -176 -132 -450 -202 -121 -31 -230 -62 -243
-70 -52 -34 -47 -104 8 -128 28 -11 51 -8 223 34 345 84 441 125 559 241 72
70 78 79 78 117 0 49 -26 72 -80 72 -30 0 -44 -10 -95 -64z"/>
<path d="M4775 11484 c-9 -11 -26 -35 -38 -54 -13 -20 -46 -48 -77 -65 -48
-26 -65 -30 -135 -30 -89 0 -149 23 -182 70 -57 81 -77 88 -127 44 -44 -38
-45 -61 -7 -121 55 -87 151 -136 281 -145 143 -10 274 38 355 130 38 43 45 58
45 93 0 50 -23 82 -66 90 -24 5 -36 1 -49 -12z"/>
<path d="M5905 11448 c-21 -25 -26 -39 -22 -65 25 -154 366 -260 548 -170 72
35 124 79 154 131 31 53 23 85 -27 116 -42 25 -54 25 -78 -2 -11 -13 -37 -42
-57 -64 -62 -67 -147 -81 -269 -43 -66 20 -84 34 -148 110 -25 30 -70 24 -101
-13z"/>
<path d="M5420 11355 c-23 -24 -23 -29 -13 -79 21 -98 73 -209 157 -336 46
-69 89 -135 95 -147 30 -60 -5 -160 -69 -195 -31 -17 -48 -19 -143 -14 l-108
6 -30 -29 c-33 -34 -37 -69 -11 -100 16 -19 28 -21 167 -23 170 -3 196 4 266
79 64 67 84 116 84 214 0 76 -3 92 -31 145 -16 32 -53 91 -81 129 -64 87 -114
188 -143 283 -13 43 -29 76 -40 82 -33 18 -75 11 -100 -15z"/>
<path d="M5318 10140 c-194 -35 -399 -140 -516 -264 -42 -44 -52 -62 -52 -89
0 -43 26 -67 73 -67 32 0 48 10 112 70 93 85 217 150 359 185 248 63 452 2
661 -197 87 -82 128 -89 160 -27 23 43 19 53 -37 114 -100 110 -241 200 -393
250 -65 22 -103 28 -200 31 -66 1 -141 -1 -167 -6z"/>
</g>
</svg>
